<svg xmlns="http://www.w3.org/2000/svg" xmlns:xlink="http://www.w3.org/1999/xlink" width="500" zoomAndPan="magnify" viewBox="0 0 375 374.999991" height="500" preserveAspectRatio="xMidYMid meet" version="1.0"><defs><g/><clipPath id="5db80c18fd"><path d="M 152 302.210938 L 230 302.210938 L 230 363.789062 L 152 363.789062 Z M 152 302.210938 " clip-rule="nonzero"/></clipPath><clipPath id="eb3d077b90"><path d="M 196.722656 360.496094 L 228.972656 311.007812 C 230.113281 309.261719 230.203125 307.027344 229.210938 305.191406 C 228.214844 303.355469 226.296875 302.210938 224.207031 302.210938 L 157.777344 302.210938 C 155.6875 302.210938 153.769531 303.355469 152.773438 305.191406 C 151.777344 307.027344 151.867188 309.261719 153.007812 311.007812 L 185.257812 360.496094 C 186.523438 362.433594 188.679688 363.601562 190.992188 363.601562 C 193.304688 363.601562 195.460938 362.433594 196.722656 360.496094 Z M 196.722656 360.496094 " clip-rule="nonzero"/></clipPath><clipPath id="0df4bf1a76"><path d="M 152 302.214844 L 230 302.214844 L 230 363.683594 L 152 363.683594 Z M 152 302.214844 " clip-rule="nonzero"/></clipPath><clipPath id="f1b5ec9fdc"><path d="M 196.71875 360.492188 L 228.964844 311.011719 C 230.105469 309.261719 230.195312 307.03125 229.199219 305.195312 C 228.207031 303.359375 226.285156 302.214844 224.199219 302.214844 L 157.773438 302.214844 C 155.6875 302.214844 153.765625 303.359375 152.773438 305.195312 C 151.777344 307.03125 151.867188 309.261719 153.007812 311.011719 L 185.253906 360.492188 C 186.515625 362.429688 188.675781 363.597656 190.988281 363.597656 C 193.300781 363.597656 195.457031 362.429688 196.71875 360.492188 Z M 196.71875 360.492188 " clip-rule="nonzero"/></clipPath><clipPath id="e4fb8d9710"><path d="M 53.671875 74.363281 L 328.171875 74.363281 L 328.171875 318.113281 L 53.671875 318.113281 Z M 53.671875 74.363281 " clip-rule="nonzero"/></clipPath><clipPath id="4de190eda8"><path d="M 105.417969 74.363281 L 276.550781 74.363281 C 305.132812 74.363281 328.300781 97.535156 328.300781 126.113281 L 328.300781 266.367188 C 328.300781 294.945312 305.132812 318.113281 276.550781 318.113281 L 105.417969 318.113281 C 76.839844 318.113281 53.671875 294.945312 53.671875 266.367188 L 53.671875 126.113281 C 53.671875 97.535156 76.839844 74.363281 105.417969 74.363281 Z M 105.417969 74.363281 " clip-rule="nonzero"/></clipPath><clipPath id="f12f0c4bb7"><path d="M 130.125 265.886719 L 253 265.886719 L 253 355.992188 L 130.125 355.992188 Z M 130.125 265.886719 " clip-rule="nonzero"/></clipPath><clipPath id="8713876496"><path d="M 193.402344 354.945312 L 252.667969 268.359375 C 253 267.875 253.035156 267.25 252.761719 266.730469 C 252.488281 266.210938 251.949219 265.886719 251.363281 265.886719 L 132.050781 265.886719 C 131.464844 265.886719 130.925781 266.210938 130.652344 266.730469 C 130.378906 267.25 130.414062 267.875 130.746094 268.359375 L 190.011719 354.945312 C 190.394531 355.503906 191.03125 355.839844 191.707031 355.839844 C 192.386719 355.839844 193.019531 355.503906 193.402344 354.945312 Z M 193.402344 354.945312 " clip-rule="nonzero"/></clipPath><clipPath id="7649ec88c6"><path d="M 130 265.886719 L 253 265.886719 L 253 355.984375 L 130 355.984375 Z M 130 265.886719 " clip-rule="nonzero"/></clipPath><clipPath id="0e29b6b8f1"><path d="M 193.402344 354.945312 L 252.667969 268.359375 C 252.996094 267.875 253.035156 267.25 252.761719 266.730469 C 252.488281 266.210938 251.949219 265.886719 251.359375 265.886719 L 132.050781 265.886719 C 131.464844 265.886719 130.925781 266.210938 130.652344 266.730469 C 130.378906 267.25 130.414062 267.875 130.746094 268.359375 L 190.011719 354.945312 C 190.394531 355.503906 191.027344 355.835938 191.707031 355.835938 C 192.382812 355.835938 193.019531 355.503906 193.402344 354.945312 Z M 193.402344 354.945312 " clip-rule="nonzero"/></clipPath><clipPath id="73bb80eba0"><path d="M 59.617188 163.972656 L 319 163.972656 L 319 311.167969 L 59.617188 311.167969 Z M 59.617188 163.972656 " clip-rule="nonzero"/></clipPath><clipPath id="19d7e35c51"><path d="M 97.867188 163.972656 L 280.820312 163.972656 C 301.945312 163.972656 319.070312 181.097656 319.070312 202.222656 L 319.070312 272.917969 C 319.070312 294.042969 301.945312 311.167969 280.820312 311.167969 L 97.867188 311.167969 C 76.746094 311.167969 59.617188 294.042969 59.617188 272.917969 L 59.617188 202.222656 C 59.617188 181.097656 76.746094 163.972656 97.867188 163.972656 Z M 97.867188 163.972656 " clip-rule="nonzero"/></clipPath><clipPath id="a1e62dac56"><path d="M 59.617188 82.976562 L 319.234375 82.976562 L 319.234375 193.191406 L 59.617188 193.191406 Z M 59.617188 82.976562 " clip-rule="nonzero"/></clipPath><clipPath id="ef3bf31956"><path d="M 94.117188 82.976562 L 284.570312 82.976562 C 293.722656 82.976562 302.496094 86.609375 308.96875 93.078125 C 315.4375 99.550781 319.070312 108.324219 319.070312 117.476562 L 319.070312 158.691406 C 319.070312 167.84375 315.4375 176.617188 308.96875 183.089844 C 302.496094 189.558594 293.722656 193.191406 284.570312 193.191406 L 94.117188 193.191406 C 84.96875 193.191406 76.195312 189.558594 69.722656 183.089844 C 63.253906 176.617188 59.617188 167.84375 59.617188 158.691406 L 59.617188 117.476562 C 59.617188 108.324219 63.253906 99.550781 69.722656 93.078125 C 76.195312 86.609375 84.96875 82.976562 94.117188 82.976562 Z M 94.117188 82.976562 " clip-rule="nonzero"/></clipPath><clipPath id="6527d88dfd"><path d="M 62.910156 142.628906 L 319.070312 142.628906 L 319.070312 195.867188 L 62.910156 195.867188 Z M 62.910156 142.628906 " clip-rule="nonzero"/></clipPath><clipPath id="0d96a386af"><path d="M 53.8125 74.363281 L 324.5625 74.363281 L 324.5625 314.363281 L 53.8125 314.363281 Z M 53.8125 74.363281 " clip-rule="nonzero"/></clipPath><clipPath id="82da0a3f17"><path d="M 102.5625 74.363281 L 276.125 74.363281 C 289.054688 74.363281 301.453125 79.5 310.597656 88.640625 C 319.738281 97.785156 324.875 110.183594 324.875 123.113281 L 324.875 265.933594 C 324.875 278.859375 319.738281 291.261719 310.597656 300.402344 C 301.453125 309.542969 289.054688 314.679688 276.125 314.679688 L 102.5625 314.679688 C 89.632812 314.679688 77.234375 309.542969 68.089844 300.402344 C 58.949219 291.261719 53.8125 278.859375 53.8125 265.933594 L 53.8125 123.113281 C 53.8125 110.183594 58.949219 97.785156 68.089844 88.640625 C 77.234375 79.5 89.632812 74.363281 102.5625 74.363281 Z M 102.5625 74.363281 " clip-rule="nonzero"/></clipPath><clipPath id="2a162c8ce3"><path d="M 152.40625 280.847656 L 231.058594 280.847656 L 231.058594 341.492188 L 152.40625 341.492188 Z M 152.40625 280.847656 " clip-rule="nonzero"/></clipPath><clipPath id="9f67dbc8b7"><path d="M 191.707031 341.492188 L 231.007812 280.847656 L 152.40625 280.847656 Z M 191.707031 341.492188 " clip-rule="nonzero"/></clipPath><clipPath id="cb56d5f71c"><path d="M 107.582031 111.945312 L 270.078125 111.945312 L 270.078125 274.441406 L 107.582031 274.441406 Z M 107.582031 111.945312 " clip-rule="nonzero"/></clipPath><clipPath id="b09b756121"><path d="M 270.078125 193.191406 C 270.078125 148.320312 233.699219 111.945312 188.828125 111.945312 C 143.957031 111.945312 107.582031 148.320312 107.582031 193.191406 C 107.582031 238.066406 143.957031 274.441406 188.828125 274.441406 C 233.699219 274.441406 270.078125 238.066406 270.078125 193.191406 Z M 270.078125 193.191406 " clip-rule="nonzero"/></clipPath><clipPath id="c189f3f833"><path d="M 107.585938 111.945312 L 270.078125 111.945312 L 270.078125 274.4375 L 107.585938 274.4375 Z M 107.585938 111.945312 " clip-rule="nonzero"/></clipPath><clipPath id="33847b3a66"><path d="M 270.078125 193.191406 C 270.078125 148.320312 233.703125 111.945312 188.832031 111.945312 C 143.960938 111.945312 107.585938 148.320312 107.585938 193.191406 C 107.585938 238.0625 143.960938 274.4375 188.832031 274.4375 C 233.703125 274.4375 270.078125 238.0625 270.078125 193.191406 Z M 270.078125 193.191406 " clip-rule="nonzero"/></clipPath><clipPath id="60039b074f"><path d="M 160.390625 153.574219 L 232.914062 153.574219 L 232.914062 232.984375 L 160.390625 232.984375 Z M 160.390625 153.574219 " clip-rule="nonzero"/></clipPath><clipPath id="f157dbf486"><path d="M 226.816406 183.140625 L 177.972656 155.230469 C 174.335938 153.148438 169.867188 153.164062 166.246094 155.269531 C 162.621094 157.371094 160.390625 161.242188 160.390625 165.433594 L 160.390625 220.941406 C 160.390625 225.128906 162.621094 229 166.246094 231.105469 C 169.867188 233.207031 174.335938 233.222656 177.972656 231.144531 L 226.816406 203.234375 C 230.421875 201.171875 232.648438 197.339844 232.648438 193.1875 C 232.648438 189.035156 230.421875 185.199219 226.816406 183.140625 Z M 226.816406 183.140625 " clip-rule="nonzero"/></clipPath><clipPath id="8f5906b82c"><path d="M 160.390625 153 L 233 153 L 233 233 L 160.390625 233 Z M 160.390625 153 " clip-rule="nonzero"/></clipPath><clipPath id="603b3dded9"><path d="M 226.8125 183.144531 L 177.972656 155.234375 C 174.335938 153.15625 169.867188 153.171875 166.242188 155.273438 C 162.621094 157.378906 160.390625 161.25 160.390625 165.4375 L 160.390625 220.941406 C 160.390625 225.128906 162.621094 229.003906 166.242188 231.105469 C 169.867188 233.207031 174.335938 233.222656 177.972656 231.144531 L 226.8125 203.234375 C 230.417969 201.175781 232.640625 197.34375 232.640625 193.191406 C 232.640625 189.039062 230.417969 185.203125 226.8125 183.144531 Z M 226.8125 183.144531 " clip-rule="nonzero"/></clipPath></defs><g fill="#fff7d9" fill-opacity="1"><g transform="translate(143.607417, 65.814279)"><g><path d="M 20.53125 -27.765625 C 20.925781 -27.617188 21.125 -27.378906 21.125 -27.046875 L 21.046875 -26.71875 L 14.359375 -5.125 L 14.328125 -5.203125 C 14.179688 -5.148438 14.09375 -5.097656 14.0625 -5.046875 C 14.039062 -4.929688 13.988281 -4.832031 13.90625 -4.75 L 14.109375 -4.625 L 14.234375 -4.625 L 14.0625 -4.15625 L 13.984375 -4.03125 L 13.90625 -3.828125 C 13.90625 -3.765625 13.914062 -3.722656 13.9375 -3.703125 L 13.015625 -0.75 C 12.910156 -0.363281 12.644531 -0.15625 12.21875 -0.125 L 6.296875 0 C 5.796875 0 5.503906 -0.222656 5.421875 -0.671875 L 2.390625 -14.53125 L 0.796875 -22.34375 L 0.875 -22.421875 L 0.75 -22.46875 L 0.296875 -24.734375 L 0.296875 -24.828125 L -0.375 -27.96875 L -0.375 -28.140625 C -0.375 -28.390625 -0.296875 -28.597656 -0.140625 -28.765625 C 0.00390625 -28.929688 0.207031 -29.015625 0.46875 -29.015625 L 5.453125 -29.015625 C 5.898438 -29.015625 6.179688 -28.789062 6.296875 -28.34375 L 7.0625 -25.203125 L 6.796875 -25.203125 L 6.796875 -25.03125 C 6.828125 -25.03125 6.84375 -25.003906 6.84375 -24.953125 L 7.09375 -24.953125 L 7.09375 -24.984375 L 7.1875 -24.703125 L 7.015625 -24.703125 L 7.015625 -24.609375 L 7.1875 -24.609375 L 9.78125 -13.5625 L 14.703125 -29.0625 C 14.753906 -29.289062 14.890625 -29.46875 15.109375 -29.59375 C 15.335938 -29.71875 15.566406 -29.722656 15.796875 -29.609375 L 16.125 -29.484375 C 15.957031 -29.398438 15.875 -29.273438 15.875 -29.109375 L 15.875 -28.6875 C 15.875 -28.519531 15.859375 -28.394531 15.828125 -28.3125 C 15.804688 -28.25 15.722656 -28.191406 15.578125 -28.140625 C 15.359375 -28.023438 15.289062 -27.882812 15.375 -27.71875 C 15.394531 -27.664062 15.40625 -27.597656 15.40625 -27.515625 C 15.40625 -27.453125 15.394531 -27.421875 15.375 -27.421875 C 15.289062 -27.367188 15.25 -27.34375 15.25 -27.34375 L 15.25 -26.75 C 15.75 -27.03125 16.039062 -27.242188 16.125 -27.390625 C 16.125 -27.441406 16.15625 -27.46875 16.21875 -27.46875 L 16.375 -27.59375 C 16.457031 -27.726562 16.5 -27.910156 16.5 -28.140625 C 16.5 -28.191406 16.472656 -28.21875 16.421875 -28.21875 L 16.375 -28.3125 L 16.375 -29.40625 Z M 0.421875 -26.125 C 0.421875 -26.09375 0.441406 -26.0625 0.484375 -26.03125 C 0.523438 -26.007812 0.5625 -26 0.59375 -26 C 0.644531 -26.050781 0.644531 -26.09375 0.59375 -26.125 Z M 0.5 -25.78125 C 0.5625 -25.695312 0.632812 -25.695312 0.71875 -25.78125 L 0.59375 -25.828125 L 0.546875 -25.78125 Z M 2.640625 -25.328125 C 2.640625 -25.328125 2.671875 -25.351562 2.734375 -25.40625 C 2.734375 -25.40625 2.722656 -25.410156 2.703125 -25.421875 C 2.691406 -25.441406 2.6875 -25.453125 2.6875 -25.453125 L 2.640625 -25.53125 L 2.515625 -25.53125 L 2.390625 -25.453125 C 2.421875 -25.398438 2.492188 -25.34375 2.609375 -25.28125 Z M 6.125 -25.40625 C 6.125 -25.320312 6.179688 -25.28125 6.296875 -25.28125 L 6.34375 -25.375 L 6.34375 -25.453125 L 6.265625 -25.53125 L 6.21875 -25.453125 C 6.15625 -25.453125 6.125 -25.4375 6.125 -25.40625 Z M 2.140625 -25.15625 C 1.941406 -25.207031 1.789062 -25.234375 1.6875 -25.234375 L 1.515625 -25.203125 L 1.421875 -25.078125 C 1.597656 -25.046875 1.6875 -24.972656 1.6875 -24.859375 L 1.765625 -24.90625 Z M 3.1875 -24.703125 L 3.1875 -24.859375 C 3.25 -24.859375 3.28125 -24.847656 3.28125 -24.828125 L 3.359375 -24.828125 C 3.410156 -24.828125 3.476562 -24.867188 3.5625 -24.953125 L 3.484375 -24.984375 L 3.40625 -25.03125 L 3.234375 -25.078125 L 3.109375 -25.03125 C 3.054688 -24.976562 3.015625 -24.953125 2.984375 -24.953125 L 2.984375 -24.703125 Z M 5.171875 -24.859375 C 5.171875 -24.835938 5.195312 -24.828125 5.25 -24.828125 C 5.25 -24.796875 5.273438 -24.78125 5.328125 -24.78125 C 5.410156 -24.78125 5.453125 -24.796875 5.453125 -24.828125 L 5.5 -24.859375 L 5.421875 -25.03125 C 5.304688 -25.03125 5.222656 -25.003906 5.171875 -24.953125 Z M 6.21875 -24.78125 C 6.332031 -24.695312 6.441406 -24.679688 6.546875 -24.734375 L 6.546875 -24.828125 L 6.515625 -24.90625 C 6.429688 -24.820312 6.332031 -24.78125 6.21875 -24.78125 Z M 5.796875 -24.65625 C 5.765625 -24.6875 5.695312 -24.703125 5.59375 -24.703125 L 5.328125 -24.734375 L 5.328125 -24.40625 L 5.5 -24.40625 C 5.5 -24.457031 5.539062 -24.484375 5.625 -24.484375 L 5.796875 -24.53125 Z M 4.078125 -24.4375 L 3.5625 -24.4375 C 3.539062 -24.414062 3.488281 -24.40625 3.40625 -24.40625 C 3.238281 -24.40625 3.125 -24.363281 3.0625 -24.28125 L 3.109375 -24.1875 C 3.140625 -24.1875 3.238281 -24.160156 3.40625 -24.109375 L 3.65625 -24.03125 C 3.707031 -24.03125 3.734375 -24.054688 3.734375 -24.109375 C 3.734375 -24.109375 3.738281 -24.113281 3.75 -24.125 C 3.769531 -24.144531 3.78125 -24.15625 3.78125 -24.15625 L 4.40625 -24.1875 C 4.488281 -24.21875 4.65625 -24.234375 4.90625 -24.234375 L 4.90625 -24.3125 C 4.90625 -24.375 4.878906 -24.414062 4.828125 -24.4375 C 4.742188 -24.4375 4.675781 -24.410156 4.625 -24.359375 L 4.40625 -24.359375 L 4.234375 -24.40625 Z M 3.859375 -23.9375 L 3.90625 -23.9375 L 3.859375 -24.03125 L 3.78125 -23.984375 Z M 4.875 -23.859375 C 4.875 -23.859375 4.863281 -23.863281 4.84375 -23.875 C 4.832031 -23.882812 4.828125 -23.890625 4.828125 -23.890625 L 4.40625 -23.890625 C 4.351562 -23.835938 4.328125 -23.796875 4.328125 -23.765625 C 4.328125 -23.710938 4.347656 -23.664062 4.390625 -23.625 C 4.429688 -23.582031 4.492188 -23.5625 4.578125 -23.5625 C 4.796875 -23.5625 4.90625 -23.644531 4.90625 -23.8125 L 4.90625 -23.859375 Z M 5.796875 -23.09375 C 5.910156 -23.09375 5.96875 -23.125 5.96875 -23.1875 L 5.875 -23.265625 C 5.820312 -23.265625 5.796875 -23.207031 5.796875 -23.09375 Z M 3.28125 -22.546875 C 3.28125 -22.578125 3.332031 -22.648438 3.4375 -22.765625 L 3.0625 -22.8125 L 3.0625 -22.6875 C 3.0625 -22.65625 3.066406 -22.628906 3.078125 -22.609375 C 3.097656 -22.597656 3.109375 -22.578125 3.109375 -22.546875 Z M 3.734375 -22.390625 C 3.648438 -22.390625 3.566406 -22.304688 3.484375 -22.140625 L 3.609375 -22.09375 L 3.984375 -22.09375 C 4.066406 -22.09375 4.125 -22.109375 4.15625 -22.140625 C 4.039062 -22.191406 3.984375 -22.257812 3.984375 -22.34375 L 4.078125 -22.421875 Z M 6.515625 -22.21875 L 6.59375 -22.140625 L 6.671875 -22.21875 L 6.59375 -22.265625 Z M 6.796875 -21.34375 L 6.546875 -21.46875 L 6.546875 -21.078125 C 6.660156 -21.078125 6.71875 -21.035156 6.71875 -20.953125 C 6.75 -20.953125 6.804688 -20.992188 6.890625 -21.078125 L 7.015625 -21.203125 Z M 3.90625 -21.25 L 3.984375 -21.34375 C 3.847656 -21.394531 3.738281 -21.421875 3.65625 -21.421875 C 3.539062 -21.421875 3.484375 -21.378906 3.484375 -21.296875 C 3.484375 -21.234375 3.539062 -21.203125 3.65625 -21.203125 L 3.859375 -21.171875 Z M 1.46875 -20.75 C 1.46875 -20.832031 1.441406 -20.898438 1.390625 -20.953125 L 1.21875 -20.953125 L 1.09375 -20.921875 L 1.140625 -20.75 Z M 3.984375 -20.078125 C 3.984375 -20.046875 4.015625 -20.003906 4.078125 -19.953125 L 4.234375 -19.953125 C 4.347656 -20.003906 4.40625 -20.0625 4.40625 -20.125 C 4.40625 -20.207031 4.347656 -20.25 4.234375 -20.25 L 4.078125 -20.203125 C 4.015625 -20.148438 3.984375 -20.109375 3.984375 -20.078125 Z M 5.625 -20.25 L 5.421875 -20.125 C 5.421875 -20.03125 5.488281 -19.957031 5.625 -19.90625 C 5.65625 -19.9375 5.726562 -19.953125 5.84375 -19.953125 L 5.84375 -20.203125 Z M 6.765625 -17.390625 C 6.703125 -17.441406 6.617188 -17.46875 6.515625 -17.46875 L 6.421875 -17.34375 L 6.59375 -17.34375 Z M 9.078125 -14.78125 C 9.128906 -14.78125 9.171875 -14.765625 9.203125 -14.734375 C 9.222656 -14.710938 9.273438 -14.703125 9.359375 -14.703125 L 9.40625 -14.875 Z M 14.328125 -11.796875 L 14.328125 -11.96875 C 14.296875 -11.96875 14.265625 -11.957031 14.234375 -11.9375 C 14.210938 -11.925781 14.171875 -11.921875 14.109375 -11.921875 L 14.109375 -11.765625 Z M 5.71875 -5.84375 C 5.820312 -5.84375 5.847656 -5.867188 5.796875 -5.921875 C 5.796875 -6.171875 5.78125 -6.351562 5.75 -6.46875 L 5.625 -6.890625 C 5.601562 -6.972656 5.523438 -7.203125 5.390625 -7.578125 C 5.265625 -7.953125 5.175781 -8.269531 5.125 -8.53125 L 5 -9.078125 L 4.90625 -9.328125 L 4.875 -9.78125 C 4.84375 -9.84375 4.828125 -9.914062 4.828125 -10 L 4.75 -10.5 C 4.664062 -10.664062 4.59375 -10.78125 4.53125 -10.84375 C 4.394531 -10.925781 4.296875 -11.007812 4.234375 -11.09375 L 5.59375 -5.71875 C 5.59375 -5.769531 5.632812 -5.8125 5.71875 -5.84375 Z M 12.015625 -10.078125 C 12.097656 -10.078125 12.289062 -10.132812 12.59375 -10.25 C 12.488281 -10.300781 12.40625 -10.328125 12.34375 -10.328125 L 12.046875 -10.296875 L 11.71875 -10.25 L 11.84375 -10.078125 Z M 11.171875 -10.078125 C 11.117188 -10.128906 11.050781 -10.144531 10.96875 -10.125 L 10.84375 -10.078125 Z M 14.328125 -9.625 C 14.296875 -9.644531 14.222656 -9.65625 14.109375 -9.65625 L 14.0625 -9.625 L 14.03125 -9.53125 C 14.03125 -9.5 14.070312 -9.457031 14.15625 -9.40625 L 14.0625 -9.40625 C 14.238281 -9.320312 14.378906 -9.320312 14.484375 -9.40625 L 14.484375 -9.625 Z M 11.46875 -8.484375 C 11.550781 -8.484375 11.617188 -8.457031 11.671875 -8.40625 C 11.734375 -8.457031 11.765625 -8.523438 11.765625 -8.609375 C 11.648438 -8.609375 11.566406 -8.59375 11.515625 -8.5625 L 11.25 -8.5625 Z M 12.46875 -6.9375 C 12.46875 -6.9375 12.425781 -6.976562 12.34375 -7.0625 C 12.257812 -7.0625 12.21875 -7.085938 12.21875 -7.140625 C 12.082031 -7.085938 12.015625 -7.03125 12.015625 -6.96875 L 12.21875 -6.9375 Z M 11.375 -6.890625 L 11.21875 -6.890625 L 11.21875 -6.84375 L 11.34375 -6.796875 Z M 14.234375 -6.390625 C 14.378906 -6.441406 14.4375 -6.46875 14.40625 -6.46875 L 14.40625 -6.59375 L 14.234375 -6.671875 L 14.109375 -6.71875 L 14.0625 -6.640625 C 14.007812 -6.578125 13.984375 -6.535156 13.984375 -6.515625 C 13.984375 -6.429688 14.007812 -6.390625 14.0625 -6.390625 C 14.09375 -6.390625 14.109375 -6.359375 14.109375 -6.296875 C 14.171875 -6.359375 14.210938 -6.390625 14.234375 -6.390625 Z M 10.5 -6.46875 C 10.382812 -6.46875 10.269531 -6.410156 10.15625 -6.296875 C 10.21875 -6.296875 10.25 -6.285156 10.25 -6.265625 L 10.328125 -6.171875 L 10.625 -6.21875 L 10.625 -6.46875 Z M 11.890625 -5.25 C 11.890625 -5.332031 11.859375 -5.375 11.796875 -5.375 C 11.742188 -5.425781 11.71875 -5.46875 11.71875 -5.5 L 11.46875 -5.453125 L 11.375 -5.421875 C 11.375 -5.253906 11.472656 -5.128906 11.671875 -5.046875 C 11.703125 -5.066406 11.773438 -5.078125 11.890625 -5.078125 Z M 7.515625 -2.640625 C 7.515625 -2.671875 7.554688 -2.6875 7.640625 -2.6875 L 7.609375 -2.890625 C 7.492188 -2.867188 7.363281 -2.785156 7.21875 -2.640625 L 7.34375 -2.609375 C 7.425781 -2.609375 7.484375 -2.617188 7.515625 -2.640625 Z M 5.5 -2.4375 L 5.203125 -2.359375 L 5.25 -2.265625 L 5.546875 -2.359375 Z M 5.5 -2.4375 "/></g></g></g><g fill="#fff7d9" fill-opacity="1"><g transform="translate(166.791418, 65.814279)"><g><path d="M 8.015625 -28.265625 C 8.015625 -28.492188 7.929688 -28.695312 7.765625 -28.875 C 7.597656 -29.050781 7.40625 -29.140625 7.1875 -29.140625 L 1.765625 -29.28125 C 1.203125 -29.28125 0.90625 -29.007812 0.875 -28.46875 L -0.421875 -0.875 C -0.421875 -0.625 -0.335938 -0.414062 -0.171875 -0.25 C -0.00390625 -0.0820312 0.207031 0 0.46875 0 L 16.546875 -0.796875 C 17.109375 -0.796875 17.390625 -1.078125 17.390625 -1.640625 L 17.515625 -7.6875 C 17.515625 -7.9375 17.429688 -8.144531 17.265625 -8.3125 C 17.097656 -8.476562 16.882812 -8.5625 16.625 -8.5625 L 7.015625 -8.4375 Z M 6.171875 -27.171875 L 6.09375 -27 L 6 -27.046875 L 6.09375 -27.171875 Z M 7.46875 -19.53125 L 7.390625 -19.484375 C 7.304688 -19.484375 7.265625 -19.515625 7.265625 -19.578125 C 7.234375 -19.578125 7.21875 -19.585938 7.21875 -19.609375 C 7.21875 -19.722656 7.273438 -19.78125 7.390625 -19.78125 C 7.441406 -19.78125 7.46875 -19.765625 7.46875 -19.734375 L 7.5625 -19.734375 L 7.5625 -19.578125 Z M 6.265625 -18.0625 C 6.285156 -18.0625 6.285156 -18.03125 6.265625 -17.96875 C 6.203125 -17.914062 6.15625 -17.890625 6.125 -17.890625 L 5.875 -17.890625 L 5.875 -18.109375 Z M 4.65625 -15.875 C 4.65625 -15.875 4.648438 -15.863281 4.640625 -15.84375 C 4.628906 -15.832031 4.625 -15.828125 4.625 -15.828125 C 4.59375 -15.804688 4.554688 -15.800781 4.515625 -15.8125 C 4.472656 -15.820312 4.453125 -15.84375 4.453125 -15.875 C 4.453125 -15.875 4.441406 -15.882812 4.421875 -15.90625 C 4.410156 -15.9375 4.394531 -15.953125 4.375 -15.953125 L 4.53125 -16.046875 L 4.65625 -16.046875 Z M 3.4375 -10 C 3.4375 -9.914062 3.367188 -9.820312 3.234375 -9.71875 C 3.097656 -9.625 2.972656 -9.578125 2.859375 -9.578125 C 2.660156 -9.578125 2.546875 -9.601562 2.515625 -9.65625 L 2.484375 -9.828125 C 2.484375 -9.910156 2.523438 -10.007812 2.609375 -10.125 C 2.710938 -10.238281 2.820312 -10.296875 2.9375 -10.296875 C 3 -10.296875 3.097656 -10.265625 3.234375 -10.203125 C 3.367188 -10.148438 3.4375 -10.082031 3.4375 -10 Z M 3.1875 -6 C 3.132812 -6 3.09375 -6.015625 3.0625 -6.046875 L 2.859375 -6.046875 L 2.859375 -6.265625 L 3.1875 -6.21875 Z M 5.625 -5.796875 L 5.625 -5.875 L 5.96875 -5.84375 L 5.96875 -5.71875 Z M 10.078125 -5.671875 C 10.078125 -5.640625 10.054688 -5.601562 10.015625 -5.5625 C 9.972656 -5.519531 9.925781 -5.5 9.875 -5.5 C 9.707031 -5.5 9.59375 -5.539062 9.53125 -5.625 L 9.65625 -5.796875 L 9.953125 -5.796875 Z M 8.140625 -5.171875 L 8.140625 -5.125 L 8.0625 -5.078125 L 8.0625 -5 L 7.9375 -5 C 7.882812 -5 7.84375 -5.015625 7.8125 -5.046875 C 7.84375 -5.128906 7.898438 -5.179688 7.984375 -5.203125 L 8.234375 -5.203125 Z M 7.3125 -5.046875 C 7.363281 -5.015625 7.375 -4.976562 7.34375 -4.9375 C 7.320312 -4.894531 7.28125 -4.875 7.21875 -4.875 C 7.164062 -4.925781 7.140625 -4.96875 7.140625 -5 L 7.140625 -5.125 Z M 9.078125 -4.90625 L 8.8125 -5 L 8.859375 -5.125 L 9.15625 -5.046875 Z M 4.109375 -4.703125 C 4.003906 -4.703125 3.953125 -4.675781 3.953125 -4.625 L 3.828125 -4.703125 C 3.796875 -4.703125 3.78125 -4.726562 3.78125 -4.78125 C 3.78125 -4.894531 3.835938 -4.953125 3.953125 -4.953125 L 4.03125 -4.90625 C 4.03125 -4.882812 4.054688 -4.875 4.109375 -4.875 Z M 5.046875 -4.203125 C 4.984375 -4.203125 4.910156 -4.171875 4.828125 -4.109375 C 4.796875 -4.285156 4.796875 -4.425781 4.828125 -4.53125 C 4.878906 -4.53125 4.921875 -4.519531 4.953125 -4.5 L 5.046875 -4.5 Z M 9.078125 -4.5 C 9.210938 -4.5 9.335938 -4.410156 9.453125 -4.234375 C 9.453125 -4.148438 9.390625 -4.082031 9.265625 -4.03125 C 9.140625 -3.976562 9.035156 -3.953125 8.953125 -3.953125 C 8.722656 -3.953125 8.609375 -4.046875 8.609375 -4.234375 C 8.609375 -4.328125 8.675781 -4.382812 8.8125 -4.40625 Z M 4.828125 -3.734375 C 4.828125 -3.734375 4.816406 -3.738281 4.796875 -3.75 C 4.785156 -3.769531 4.78125 -3.78125 4.78125 -3.78125 C 4.78125 -3.832031 4.769531 -3.859375 4.75 -3.859375 C 4.71875 -3.890625 4.6875 -3.910156 4.65625 -3.921875 C 4.632812 -3.941406 4.625 -3.960938 4.625 -3.984375 C 4.675781 -3.984375 4.71875 -4 4.75 -4.03125 C 4.769531 -4.0625 4.800781 -4.0625 4.84375 -4.03125 C 4.882812 -4 4.90625 -3.972656 4.90625 -3.953125 C 4.90625 -3.890625 4.9375 -3.859375 5 -3.859375 Z M 8.8125 -3.234375 C 8.8125 -3.285156 8.859375 -3.328125 8.953125 -3.359375 L 9.109375 -3.359375 L 9.109375 -3.3125 L 9.203125 -3.28125 L 9.109375 -3.1875 Z M 2.1875 -3.109375 C 2.300781 -3.222656 2.441406 -3.28125 2.609375 -3.28125 L 2.765625 -3.234375 L 2.859375 -3.1875 L 2.6875 -3.03125 Z M 2.015625 -3.0625 L 1.9375 -3.03125 L 1.890625 -3.109375 L 1.96875 -3.109375 Z M 15.921875 -2.8125 C 15.859375 -2.757812 15.828125 -2.773438 15.828125 -2.859375 C 15.828125 -2.941406 15.859375 -2.984375 15.921875 -2.984375 C 15.941406 -2.984375 15.957031 -2.960938 15.96875 -2.921875 C 15.988281 -2.878906 15.972656 -2.84375 15.921875 -2.8125 Z M 5.59375 -2.6875 C 5.5625 -2.65625 5.515625 -2.640625 5.453125 -2.640625 C 5.398438 -2.640625 5.375 -2.613281 5.375 -2.5625 C 5.320312 -2.613281 5.28125 -2.640625 5.25 -2.640625 C 5.21875 -2.640625 5.203125 -2.679688 5.203125 -2.765625 C 5.203125 -2.828125 5.21875 -2.859375 5.25 -2.859375 C 5.25 -2.859375 5.253906 -2.863281 5.265625 -2.875 C 5.285156 -2.882812 5.296875 -2.890625 5.296875 -2.890625 L 5.5 -2.890625 L 5.59375 -2.859375 Z M 10.03125 -2.390625 C 9.945312 -2.367188 9.851562 -2.359375 9.75 -2.359375 C 9.71875 -2.378906 9.679688 -2.382812 9.640625 -2.375 C 9.597656 -2.363281 9.5625 -2.359375 9.53125 -2.359375 L 9.359375 -2.359375 L 9.359375 -2.484375 C 9.390625 -2.535156 9.441406 -2.582031 9.515625 -2.625 C 9.585938 -2.664062 9.664062 -2.6875 9.75 -2.6875 C 9.769531 -2.6875 9.8125 -2.660156 9.875 -2.609375 L 10.03125 -2.515625 Z M 2.390625 -2.5625 L 2.1875 -2.484375 L 2.1875 -2.5625 L 2.359375 -2.609375 Z M 6.640625 -2.484375 C 6.640625 -2.421875 6.597656 -2.390625 6.515625 -2.390625 C 6.429688 -2.390625 6.359375 -2.378906 6.296875 -2.359375 L 6.296875 -2.4375 C 6.296875 -2.4375 6.296875 -2.460938 6.296875 -2.515625 L 6.46875 -2.484375 Z M 5.546875 -2.265625 C 5.515625 -2.234375 5.472656 -2.21875 5.421875 -2.21875 L 5.421875 -2.359375 L 5.59375 -2.3125 Z M 5.546875 -2.265625 "/></g></g></g><g fill="#fff7d9" fill-opacity="1"><g transform="translate(185.775414, 65.814279)"><g><path d="M 19.78125 -4.28125 C 19.863281 -4.164062 19.90625 -4.023438 19.90625 -3.859375 C 19.90625 -3.609375 19.765625 -3.382812 19.484375 -3.1875 L 14.875 -0.171875 C 14.695312 -0.0234375 14.472656 0.015625 14.203125 -0.046875 C 13.921875 -0.128906 13.738281 -0.28125 13.65625 -0.5 C 12.5625 -2.90625 11.816406 -4.421875 11.421875 -5.046875 L 11.421875 -5.078125 C 10.640625 -6.484375 10.039062 -7.535156 9.625 -8.234375 L 8.90625 -9.40625 L 6.546875 -8.78125 L 6.421875 -1.140625 C 6.421875 -0.578125 6.144531 -0.296875 5.59375 -0.296875 L 0.421875 -0.296875 C 0.171875 -0.296875 -0.03125 -0.378906 -0.1875 -0.546875 C -0.34375 -0.710938 -0.421875 -0.921875 -0.421875 -1.171875 L 1.296875 -27.171875 C 1.328125 -27.617188 1.566406 -27.882812 2.015625 -27.96875 L 8.359375 -28.765625 L 8.40625 -28.765625 L 9.578125 -28.890625 C 10.691406 -29.003906 11.5625 -29.0625 12.1875 -29.0625 C 13.414062 -29.0625 14.476562 -28.953125 15.375 -28.734375 C 16.96875 -28.390625 18.179688 -27.53125 19.015625 -26.15625 C 19.859375 -24.789062 20.28125 -23.1875 20.28125 -21.34375 C 20.28125 -19.9375 20.046875 -18.519531 19.578125 -17.09375 C 19.097656 -15.75 18.328125 -14.53125 17.265625 -13.4375 C 16.617188 -12.851562 16.070312 -12.40625 15.625 -12.09375 Z M 10.671875 -26.59375 L 10.671875 -26.671875 L 10.296875 -26.671875 L 10.296875 -26.59375 Z M 10.328125 -26.296875 L 10.328125 -26.171875 L 10.546875 -26.171875 C 10.546875 -26.191406 10.570312 -26.234375 10.625 -26.296875 L 10.671875 -26.328125 L 10.375 -26.328125 Z M 12.4375 -26.125 C 12.4375 -26.15625 12.40625 -26.171875 12.34375 -26.171875 C 12.289062 -26.171875 12.265625 -26.195312 12.265625 -26.25 L 12.265625 -26.046875 Z M 11.671875 -25.953125 L 11.765625 -26.046875 L 11.671875 -26.046875 L 11.59375 -25.953125 Z M 10.796875 -25.875 C 10.847656 -25.875 10.875 -25.859375 10.875 -25.828125 C 10.875 -25.796875 10.890625 -25.78125 10.921875 -25.78125 C 10.972656 -25.78125 11 -25.796875 11 -25.828125 L 11 -25.875 Z M 9.90625 -25.65625 C 9.738281 -25.519531 9.710938 -25.378906 9.828125 -25.234375 L 10.125 -25.234375 L 10.125 -25.28125 C 10.125 -25.394531 10.050781 -25.519531 9.90625 -25.65625 Z M 14.40625 -25.65625 C 14.375 -25.632812 14.378906 -25.59375 14.421875 -25.53125 C 14.460938 -25.476562 14.515625 -25.453125 14.578125 -25.453125 C 14.597656 -25.453125 14.609375 -25.476562 14.609375 -25.53125 C 14.609375 -25.53125 14.625 -25.535156 14.65625 -25.546875 C 14.6875 -25.566406 14.703125 -25.59375 14.703125 -25.625 Z M 13.65625 -25.578125 C 13.507812 -25.441406 13.421875 -25.34375 13.390625 -25.28125 L 13.4375 -25.28125 L 13.484375 -25.234375 L 13.53125 -25.234375 C 13.664062 -25.328125 13.734375 -25.398438 13.734375 -25.453125 C 13.734375 -25.484375 13.707031 -25.523438 13.65625 -25.578125 Z M 2.765625 -25.234375 L 2.765625 -25.453125 L 2.6875 -25.453125 L 2.6875 -25.234375 Z M 11.59375 -25.453125 C 11.59375 -25.453125 11.535156 -25.394531 11.421875 -25.28125 L 11.84375 -25.234375 L 11.921875 -25.375 L 11.765625 -25.40625 C 11.765625 -25.4375 11.707031 -25.453125 11.59375 -25.453125 Z M 12.1875 -25.375 C 12.1875 -25.3125 12.195312 -25.265625 12.21875 -25.234375 L 12.265625 -25.15625 L 12.515625 -25.15625 L 12.515625 -25.375 Z M 15.703125 -25.234375 L 15.703125 -25.375 L 15.546875 -25.375 L 15.546875 -25.234375 Z M 9.828125 -24.953125 L 9.78125 -25.03125 L 9.65625 -24.953125 L 9.65625 -24.859375 Z M 12.9375 -24.859375 C 12.988281 -24.921875 12.988281 -24.953125 12.9375 -24.953125 L 12.859375 -25.03125 C 12.796875 -24.976562 12.765625 -24.953125 12.765625 -24.953125 L 12.765625 -24.859375 Z M 11.59375 -24.703125 L 11.671875 -24.703125 L 11.671875 -24.859375 L 11.59375 -24.859375 Z M 12.1875 -24.53125 C 12.125 -24.46875 12.035156 -24.410156 11.921875 -24.359375 L 11.765625 -24.234375 L 12.1875 -24.234375 Z M 13.109375 -24.40625 C 13.046875 -24.457031 12.90625 -24.484375 12.6875 -24.484375 C 12.6875 -24.453125 12.707031 -24.429688 12.75 -24.421875 C 12.789062 -24.410156 12.828125 -24.390625 12.859375 -24.359375 C 12.859375 -24.359375 12.910156 -24.34375 13.015625 -24.3125 L 13.0625 -24.3125 L 13.0625 -24.359375 Z M 13.734375 -24.28125 C 13.703125 -24.28125 13.671875 -24.269531 13.640625 -24.25 C 13.617188 -24.238281 13.59375 -24.234375 13.5625 -24.234375 L 13.65625 -24.03125 L 13.8125 -24.109375 L 13.90625 -24.1875 Z M 15.875 -23.859375 C 15.875 -23.972656 15.804688 -24.082031 15.671875 -24.1875 L 15.671875 -23.765625 Z M 13.9375 -24.03125 C 13.832031 -23.96875 13.78125 -23.910156 13.78125 -23.859375 C 13.78125 -23.796875 13.832031 -23.765625 13.9375 -23.765625 L 14.15625 -23.734375 C 14.207031 -23.867188 14.207031 -24.007812 14.15625 -24.15625 Z M 8.5625 -23.859375 C 8.625 -23.742188 8.65625 -23.660156 8.65625 -23.609375 L 8.734375 -23.359375 L 8.90625 -23.4375 L 8.859375 -23.5625 L 8.8125 -23.640625 L 8.8125 -23.765625 C 8.8125 -23.828125 8.859375 -23.859375 8.953125 -23.859375 Z M 14.203125 -23.5625 C 14.085938 -23.613281 14 -23.640625 13.9375 -23.640625 L 13.90625 -23.4375 L 13.9375 -23.390625 L 14.109375 -23.390625 L 14.109375 -23.4375 L 14.203125 -23.4375 Z M 16.046875 -23.09375 C 16.128906 -23.125 16.144531 -23.222656 16.09375 -23.390625 C 15.914062 -23.304688 15.785156 -23.222656 15.703125 -23.140625 Z M 16.375 -23.015625 C 16.375 -22.984375 16.40625 -22.941406 16.46875 -22.890625 C 16.519531 -22.835938 16.5625 -22.8125 16.59375 -22.8125 C 16.5625 -22.914062 16.519531 -22.96875 16.46875 -22.96875 Z M 6.9375 -15.875 C 8.332031 -16.070312 9.507812 -16.394531 10.46875 -16.84375 C 11.4375 -17.289062 12.1875 -18.03125 12.71875 -19.0625 C 13.164062 -20.019531 13.390625 -20.734375 13.390625 -21.203125 C 13.390625 -21.515625 13.335938 -21.785156 13.234375 -22.015625 L 13.234375 -22.046875 C 13.117188 -22.359375 12.796875 -22.582031 12.265625 -22.71875 L 11.71875 -22.765625 C 11.320312 -22.765625 10.914062 -22.707031 10.5 -22.59375 L 7.5625 -21.921875 Z M 15.125 -22.09375 C 15.125 -22.144531 15.109375 -22.1875 15.078125 -22.21875 L 14.90625 -22.265625 L 14.90625 -22.09375 Z M 15.078125 -21.59375 C 15.160156 -21.675781 15.203125 -21.757812 15.203125 -21.84375 L 15.03125 -21.84375 L 14.875 -21.75 C 14.8125 -21.695312 14.796875 -21.671875 14.828125 -21.671875 Z M 15.671875 -21.671875 C 15.804688 -21.671875 15.875 -21.726562 15.875 -21.84375 L 15.671875 -21.84375 Z M 18.78125 -21.25 C 18.78125 -21.164062 18.75 -21.125 18.6875 -21.125 C 18.71875 -21.09375 18.753906 -21.078125 18.796875 -21.078125 C 18.835938 -21.078125 18.875 -21.066406 18.90625 -21.046875 L 19.15625 -21 C 19.15625 -21.050781 19.164062 -21.078125 19.1875 -21.078125 C 19.21875 -21.109375 19.234375 -21.148438 19.234375 -21.203125 C 19.234375 -21.316406 19.175781 -21.445312 19.0625 -21.59375 L 19.0625 -21.25 Z M 15.5 -21.34375 C 15.5 -21.3125 15.46875 -21.296875 15.40625 -21.296875 L 15.703125 -21.203125 L 15.671875 -21.296875 C 15.640625 -21.328125 15.597656 -21.34375 15.546875 -21.34375 Z M 15.671875 -20.921875 L 15.703125 -20.921875 L 15.578125 -21.046875 L 15.546875 -21 Z M 19.15625 -20.921875 L 19.0625 -20.921875 L 19.0625 -19.953125 L 19.15625 -19.953125 Z M 19.109375 -19.0625 C 19.109375 -19.207031 19.175781 -19.335938 19.3125 -19.453125 C 19.175781 -19.472656 19.109375 -19.539062 19.109375 -19.65625 C 19.140625 -19.707031 19.125 -19.789062 19.0625 -19.90625 L 19.0625 -16.921875 C 19.175781 -17.085938 19.234375 -17.257812 19.234375 -17.4375 L 19.1875 -17.9375 C 19.164062 -18.050781 19.15625 -18.191406 19.15625 -18.359375 C 19.15625 -18.460938 19.164062 -18.53125 19.1875 -18.5625 C 19.1875 -18.675781 19.160156 -18.816406 19.109375 -18.984375 Z M 14.78125 -19.15625 C 14.695312 -19.351562 14.546875 -19.453125 14.328125 -19.453125 Z M 15.125 -18.8125 L 15.125 -18.6875 L 15.5 -18.6875 L 15.5 -18.8125 Z M 14.40625 -18.265625 C 14.40625 -18.296875 14.378906 -18.335938 14.328125 -18.390625 C 14.242188 -18.453125 14.171875 -18.484375 14.109375 -18.484375 L 14.03125 -18.1875 Z M 4.03125 -17.640625 C 4 -17.722656 3.941406 -17.804688 3.859375 -17.890625 C 3.804688 -17.921875 3.78125 -17.976562 3.78125 -18.0625 C 3.726562 -17.976562 3.585938 -17.90625 3.359375 -17.84375 L 3.703125 -17.765625 C 3.804688 -17.710938 3.859375 -17.671875 3.859375 -17.640625 Z M 13.265625 -17.640625 C 13.296875 -17.640625 13.351562 -17.617188 13.4375 -17.578125 C 13.519531 -17.535156 13.585938 -17.523438 13.640625 -17.546875 C 13.703125 -17.578125 13.75 -17.625 13.78125 -17.6875 L 13.78125 -17.890625 L 13.4375 -17.9375 C 13.382812 -17.90625 13.34375 -17.878906 13.3125 -17.859375 C 13.28125 -17.847656 13.28125 -17.84375 13.3125 -17.84375 C 13.257812 -17.84375 13.234375 -17.800781 13.234375 -17.71875 Z M 3.109375 -17.8125 C 3.109375 -17.78125 3.132812 -17.738281 3.1875 -17.6875 L 3.28125 -17.71875 L 3.28125 -17.765625 C 3.332031 -17.816406 3.359375 -17.859375 3.359375 -17.890625 L 3.109375 -17.890625 Z M 4.03125 -17.265625 C 3.976562 -17.285156 3.898438 -17.332031 3.796875 -17.40625 C 3.703125 -17.476562 3.613281 -17.515625 3.53125 -17.515625 L 3.359375 -17.4375 C 3.242188 -17.375 3.160156 -17.316406 3.109375 -17.265625 L 3.28125 -17.21875 C 3.332031 -17.164062 3.382812 -17.140625 3.4375 -17.140625 Z M 14.359375 -17.4375 L 14.28125 -17.265625 L 14.453125 -17.21875 L 14.53125 -17.390625 Z M 11.671875 -16.84375 C 11.617188 -16.84375 11.5625 -16.820312 11.5 -16.78125 C 11.445312 -16.738281 11.421875 -16.6875 11.421875 -16.625 C 11.484375 -16.570312 11.566406 -16.546875 11.671875 -16.546875 L 11.671875 -16.34375 C 11.734375 -16.34375 11.875 -16.382812 12.09375 -16.46875 C 11.976562 -16.550781 11.835938 -16.59375 11.671875 -16.59375 L 11.671875 -16.671875 C 11.734375 -16.734375 11.734375 -16.789062 11.671875 -16.84375 Z M 13.1875 -16.625 L 13.109375 -16.796875 L 12.859375 -16.546875 L 13.1875 -16.546875 Z M 3.1875 -16.71875 L 3.109375 -16.71875 L 3.1875 -16.421875 L 3.28125 -16.421875 Z M 12.4375 -16.25 C 12.519531 -16.394531 12.519531 -16.519531 12.4375 -16.625 L 12.1875 -16.625 C 12.289062 -16.40625 12.375 -16.28125 12.4375 -16.25 Z M 3.1875 -16.34375 L 3.109375 -16.171875 L 3.1875 -16.125 L 3.28125 -16.296875 Z M 4.28125 -16.25 L 4.28125 -16.09375 L 4.5 -16.09375 L 4.5 -16.25 Z M 9.828125 -16.21875 L 9.828125 -16.046875 L 10.03125 -16.09375 Z M 12.09375 -16.09375 C 11.925781 -16 11.785156 -15.898438 11.671875 -15.796875 L 12.015625 -15.796875 L 12.6875 -15.625 L 12.640625 -15.671875 L 12.59375 -15.75 L 12.59375 -15.796875 L 12.1875 -15.796875 Z M 12.859375 -15.375 C 12.910156 -15.375 12.9375 -15.382812 12.9375 -15.40625 C 12.9375 -15.5 12.921875 -15.554688 12.890625 -15.578125 L 12.765625 -15.703125 C 12.628906 -15.535156 12.601562 -15.410156 12.6875 -15.328125 Z M 11.921875 -14.953125 C 11.984375 -14.953125 12.039062 -14.925781 12.09375 -14.875 C 12.257812 -15.007812 12.34375 -15.117188 12.34375 -15.203125 L 12.3125 -15.28125 L 12.265625 -15.328125 C 12.234375 -15.359375 12.207031 -15.429688 12.1875 -15.546875 L 12.09375 -15.453125 L 12.015625 -15.453125 L 11.921875 -15.375 Z M 2.609375 -15.328125 C 2.578125 -15.328125 2.5625 -15.300781 2.5625 -15.25 L 2.765625 -15.25 C 2.765625 -15.269531 2.710938 -15.335938 2.609375 -15.453125 Z M 13.53125 -15 L 13.53125 -15.15625 L 13.1875 -15.078125 L 13.1875 -14.953125 Z M 12.765625 -14.90625 C 12.546875 -14.90625 12.4375 -14.847656 12.4375 -14.734375 C 12.4375 -14.648438 12.519531 -14.609375 12.6875 -14.609375 L 12.765625 -14.609375 Z M 3.859375 -14.875 L 3.609375 -14.78125 L 3.609375 -14.734375 L 3.953125 -14.828125 Z M 9.234375 -14.53125 C 9.234375 -14.53125 9.289062 -14.585938 9.40625 -14.703125 L 9.234375 -14.828125 C 9.128906 -14.796875 9.078125 -14.722656 9.078125 -14.609375 Z M 12.9375 -14.609375 C 12.769531 -14.523438 12.6875 -14.429688 12.6875 -14.328125 L 12.9375 -14.328125 C 13.050781 -14.410156 13.050781 -14.503906 12.9375 -14.609375 Z M 12.59375 -14.234375 C 12.59375 -14.316406 12.539062 -14.390625 12.4375 -14.453125 C 12.375 -14.453125 12.316406 -14.429688 12.265625 -14.390625 C 12.210938 -14.347656 12.1875 -14.3125 12.1875 -14.28125 C 12.238281 -14.25 12.320312 -14.234375 12.4375 -14.234375 Z M 13.65625 -14.15625 C 13.65625 -14.1875 13.625 -14.203125 13.5625 -14.203125 C 13.5625 -14.203125 13.554688 -14.207031 13.546875 -14.21875 C 13.535156 -14.226562 13.53125 -14.234375 13.53125 -14.234375 L 13.4375 -14.28125 L 13.140625 -14.28125 C 13.203125 -14.164062 13.234375 -14.050781 13.234375 -13.9375 C 13.316406 -13.914062 13.382812 -13.914062 13.4375 -13.9375 L 13.65625 -13.9375 Z M 9.078125 -13.609375 L 8.90625 -13.609375 L 8.90625 -13.53125 L 9.078125 -13.53125 Z M 13.1875 -13.359375 C 13.300781 -13.359375 13.367188 -13.367188 13.390625 -13.390625 C 13.453125 -13.453125 13.484375 -13.5 13.484375 -13.53125 C 13.421875 -13.582031 13.296875 -13.609375 13.109375 -13.609375 Z M 9.078125 -12.9375 C 9.078125 -12.882812 9.085938 -12.859375 9.109375 -12.859375 L 9.234375 -12.859375 C 9.265625 -12.992188 9.265625 -13.0625 9.234375 -13.0625 C 9.128906 -13.0625 9.078125 -13.019531 9.078125 -12.9375 Z M 13.140625 -12.859375 C 13.003906 -12.710938 12.9375 -12.582031 12.9375 -12.46875 L 13.015625 -12.4375 L 13.3125 -12.4375 L 13.234375 -12.6875 Z M 13.359375 -12.390625 L 13.234375 -12.21875 L 13.390625 -12.1875 L 13.53125 -12.34375 Z M 13.734375 -12.015625 C 13.867188 -12.015625 13.992188 -12.054688 14.109375 -12.140625 L 13.734375 -12.21875 C 13.679688 -12.101562 13.679688 -12.035156 13.734375 -12.015625 Z M 13.140625 -12.140625 C 13.003906 -12.222656 12.878906 -12.207031 12.765625 -12.09375 C 12.828125 -12.039062 12.925781 -12.015625 13.0625 -12.015625 C 13.113281 -12.015625 13.140625 -12.039062 13.140625 -12.09375 Z M 9.328125 -11.375 L 9.234375 -11.34375 L 9.28125 -11.25 L 9.359375 -11.25 Z M 13.8125 -9.75 C 13.8125 -9.832031 13.800781 -9.882812 13.78125 -9.90625 C 13.78125 -9.90625 13.769531 -9.898438 13.75 -9.890625 C 13.738281 -9.878906 13.734375 -9.875 13.734375 -9.875 L 13.6875 -9.828125 L 13.65625 -9.828125 Z M 17.296875 -7.859375 C 17.359375 -7.859375 17.390625 -7.898438 17.390625 -7.984375 L 17.171875 -7.984375 Z M 17.515625 -7.609375 L 17.296875 -7.609375 L 17.296875 -7.34375 C 17.390625 -7.257812 17.503906 -7.21875 17.640625 -7.21875 C 17.585938 -7.300781 17.5625 -7.382812 17.5625 -7.46875 Z M 17.71875 -6.71875 L 17.640625 -6.59375 L 17.71875 -6.546875 L 17.8125 -6.671875 Z M 18.359375 -5 C 18.359375 -5.113281 18.273438 -5.179688 18.109375 -5.203125 C 18.015625 -5.117188 17.96875 -5.066406 17.96875 -5.046875 C 17.96875 -4.953125 18.003906 -4.867188 18.078125 -4.796875 C 18.148438 -4.734375 18.210938 -4.703125 18.265625 -4.703125 L 18.3125 -4.828125 Z M 17.21875 -4.375 C 17.269531 -4.375 17.34375 -4.382812 17.4375 -4.40625 C 17.539062 -4.4375 17.625 -4.476562 17.6875 -4.53125 L 17.5625 -4.578125 L 17.4375 -4.65625 C 17.375 -4.6875 17.273438 -4.703125 17.140625 -4.703125 C 17.078125 -4.703125 17.019531 -4.6875 16.96875 -4.65625 C 16.914062 -4.632812 16.890625 -4.59375 16.890625 -4.53125 C 16.992188 -4.425781 17.101562 -4.375 17.21875 -4.375 Z M 2.765625 -1.9375 C 2.910156 -1.9375 3 -1.988281 3.03125 -2.09375 L 2.859375 -2.09375 C 2.859375 -1.988281 2.828125 -1.9375 2.765625 -1.9375 Z M 2.765625 -1.9375 "/></g></g></g><g fill="#fff7d9" fill-opacity="1"><g transform="translate(208.707415, 65.814279)"><g><path d="M 18.484375 -15.578125 C 19.460938 -16.617188 20.132812 -17.78125 20.5 -19.0625 L 20.53125 -19.109375 L 20.53125 -19.15625 C 20.757812 -20.132812 20.875 -21.097656 20.875 -22.046875 C 20.875 -23.367188 20.632812 -24.445312 20.15625 -25.28125 C 19.207031 -26.988281 17.671875 -28.097656 15.546875 -28.609375 C 14.953125 -28.742188 14.207031 -28.8125 13.3125 -28.8125 C 12.414062 -28.8125 11.476562 -28.742188 10.5 -28.609375 L 2.4375 -27.671875 C 1.988281 -27.648438 1.738281 -27.398438 1.6875 -26.921875 L -0.421875 -0.921875 C -0.421875 -0.640625 -0.335938 -0.414062 -0.171875 -0.25 C -0.00390625 -0.0820312 0.191406 0 0.421875 0 L 10.078125 0 C 12.203125 0 13.925781 -0.28125 15.25 -0.84375 C 16.707031 -1.40625 17.867188 -2.410156 18.734375 -3.859375 C 19.597656 -5.316406 20.03125 -6.859375 20.03125 -8.484375 C 20.03125 -9.878906 19.820312 -11.023438 19.40625 -11.921875 C 18.988281 -12.816406 18.316406 -13.660156 17.390625 -14.453125 Z M 17.515625 -25.875 L 17.4375 -25.703125 L 17.34375 -25.703125 L 17.390625 -25.875 Z M 11.375 -25.03125 L 11.171875 -25.109375 C 11.054688 -25.171875 10.972656 -25.203125 10.921875 -25.203125 L 11.09375 -25.328125 L 11.296875 -25.453125 L 11.59375 -25.203125 L 11.59375 -25.109375 L 11.515625 -25.03125 Z M 11.421875 -23.734375 C 11.390625 -23.703125 11.347656 -23.6875 11.296875 -23.6875 L 11.25 -23.765625 C 11.226562 -23.796875 11.21875 -23.835938 11.21875 -23.890625 L 11.25 -24.109375 L 11.515625 -24.40625 C 11.515625 -24.34375 11.5 -24.300781 11.46875 -24.28125 L 11.421875 -24.1875 C 11.367188 -24.132812 11.367188 -24.066406 11.421875 -23.984375 C 11.484375 -23.921875 11.515625 -23.847656 11.515625 -23.765625 Z M 12.515625 -23.8125 L 12.59375 -23.8125 L 12.59375 -23.640625 L 12.515625 -23.640625 Z M 14.609375 -22.890625 L 14.703125 -23.0625 L 14.78125 -23.0625 L 14.703125 -22.84375 Z M 8.984375 -21.625 C 10.109375 -21.820312 10.953125 -21.921875 11.515625 -21.921875 C 11.898438 -21.921875 12.234375 -21.820312 12.515625 -21.625 C 12.710938 -21.519531 12.8125 -21.253906 12.8125 -20.828125 C 12.8125 -20.578125 12.769531 -20.242188 12.6875 -19.828125 C 12.519531 -19.210938 12.179688 -18.765625 11.671875 -18.484375 C 10.773438 -17.953125 9.40625 -17.503906 7.5625 -17.140625 L 7.9375 -21.5 Z M 15.125 -20.03125 C 15.125 -19.945312 15.09375 -19.878906 15.03125 -19.828125 L 14.953125 -19.859375 C 14.953125 -19.921875 15.007812 -19.976562 15.125 -20.03125 Z M 7.4375 -19.578125 C 7.4375 -19.429688 7.351562 -19.316406 7.1875 -19.234375 L 7.265625 -19.0625 L 7.390625 -18.9375 C 7.390625 -18.9375 7.394531 -18.929688 7.40625 -18.921875 C 7.425781 -18.910156 7.4375 -18.90625 7.4375 -18.90625 L 7.34375 -18.734375 L 7.09375 -18.734375 C 7.007812 -18.734375 6.96875 -18.773438 6.96875 -18.859375 L 6.890625 -19.03125 C 7.054688 -19.132812 7.113281 -19.21875 7.0625 -19.28125 L 6.9375 -19.28125 L 6.890625 -19.3125 L 6.84375 -19.3125 C 6.84375 -19.375 6.875 -19.40625 6.9375 -19.40625 L 7.015625 -19.40625 L 6.96875 -19.484375 C 6.96875 -19.484375 6.960938 -19.5 6.953125 -19.53125 C 6.941406 -19.5625 6.921875 -19.578125 6.890625 -19.578125 L 6.890625 -19.703125 C 6.890625 -19.722656 6.90625 -19.734375 6.9375 -19.734375 L 6.9375 -19.828125 L 7.015625 -19.828125 L 7.140625 -19.90625 C 7.191406 -19.851562 7.21875 -19.828125 7.21875 -19.828125 L 7.390625 -19.65625 Z M 18.90625 -18.3125 C 18.84375 -18.257812 18.800781 -18.234375 18.78125 -18.234375 C 18.71875 -18.234375 18.6875 -18.21875 18.6875 -18.1875 C 18.65625 -18.1875 18.617188 -18.195312 18.578125 -18.21875 C 18.535156 -18.25 18.515625 -18.296875 18.515625 -18.359375 C 18.515625 -18.441406 18.570312 -18.484375 18.6875 -18.484375 L 18.78125 -18.484375 L 18.90625 -18.4375 Z M 7.09375 -18.1875 C 7.125 -18.15625 7.179688 -18.113281 7.265625 -18.0625 L 7.3125 -17.890625 L 6.84375 -17.890625 L 6.9375 -18.0625 L 7.015625 -18.109375 Z M 12.765625 -17.8125 C 12.828125 -17.863281 12.859375 -17.960938 12.859375 -18.109375 L 13.234375 -18.109375 L 13.234375 -17.96875 L 13.265625 -17.890625 L 13.265625 -17.8125 Z M 12.1875 -17.8125 C 12.1875 -17.726562 12.238281 -17.6875 12.34375 -17.6875 C 12.125 -17.539062 11.929688 -17.539062 11.765625 -17.6875 L 12.015625 -17.71875 C 12.097656 -17.78125 12.160156 -17.820312 12.203125 -17.84375 C 12.242188 -17.875 12.238281 -17.863281 12.1875 -17.8125 Z M 7.140625 -17.6875 C 7.140625 -17.65625 7.15625 -17.640625 7.1875 -17.640625 L 7.1875 -17.59375 L 6.9375 -17.46875 C 6.820312 -17.5 6.707031 -17.597656 6.59375 -17.765625 L 6.9375 -17.8125 L 7.015625 -17.765625 L 7.09375 -17.765625 L 7.140625 -17.71875 Z M 13.015625 -17.59375 C 13.015625 -17.59375 13.019531 -17.585938 13.03125 -17.578125 C 13.050781 -17.566406 13.0625 -17.5625 13.0625 -17.5625 L 13.0625 -17.46875 L 12.890625 -17.46875 C 12.804688 -17.46875 12.738281 -17.484375 12.6875 -17.515625 C 12.6875 -17.546875 12.71875 -17.582031 12.78125 -17.625 C 12.851562 -17.664062 12.929688 -17.6875 13.015625 -17.6875 Z M 13.78125 -16.84375 C 13.695312 -16.757812 13.613281 -16.71875 13.53125 -16.71875 C 13.46875 -16.71875 13.378906 -16.6875 13.265625 -16.625 C 13.265625 -16.6875 13.253906 -16.734375 13.234375 -16.765625 L 13.140625 -16.796875 L 13.0625 -16.890625 L 13.140625 -16.96875 L 13.265625 -17.140625 C 13.410156 -17.222656 13.5 -17.304688 13.53125 -17.390625 Z M 11.09375 -17.21875 L 11.09375 -17.34375 L 11.421875 -17.296875 L 11.421875 -17.140625 Z M 5.203125 -16.84375 C 5.179688 -16.875 5.128906 -16.890625 5.046875 -16.890625 L 4.953125 -16.921875 L 4.703125 -17.015625 C 4.703125 -17.097656 4.816406 -17.179688 5.046875 -17.265625 L 5.203125 -17.140625 Z M 11.25 -17.09375 C 11.363281 -17.007812 11.363281 -16.910156 11.25 -16.796875 L 11.171875 -16.796875 L 11.09375 -16.84375 C 11.09375 -16.84375 11.082031 -16.847656 11.0625 -16.859375 C 11.050781 -16.878906 11.046875 -16.890625 11.046875 -16.890625 L 11.09375 -16.96875 L 11.171875 -17.046875 Z M 4.328125 -16.71875 C 4.242188 -16.71875 4.171875 -16.734375 4.109375 -16.765625 L 4.203125 -17.015625 C 4.222656 -17.015625 4.25 -17.003906 4.28125 -16.984375 C 4.3125 -16.972656 4.34375 -16.96875 4.375 -16.96875 L 4.53125 -16.96875 L 4.53125 -16.71875 Z M 6.46875 -16.765625 C 6.46875 -16.785156 6.488281 -16.800781 6.53125 -16.8125 C 6.570312 -16.832031 6.609375 -16.859375 6.640625 -16.890625 L 6.640625 -16.71875 C 6.640625 -16.632812 6.625 -16.5625 6.59375 -16.5 L 6.390625 -16.625 C 6.390625 -16.65625 6.414062 -16.703125 6.46875 -16.765625 Z M 16.921875 -16.671875 C 16.953125 -16.703125 17.007812 -16.726562 17.09375 -16.75 C 17.175781 -16.78125 17.257812 -16.796875 17.34375 -16.796875 L 17.515625 -16.796875 L 17.640625 -16.765625 L 17.46875 -16.59375 Z M 16.765625 -16.59375 L 16.671875 -16.546875 L 16.625 -16.671875 L 16.71875 -16.671875 Z M 13.234375 -16.21875 L 13.234375 -16.46875 L 13.4375 -16.46875 L 13.4375 -16.21875 Z M 12.765625 -16.21875 C 12.960938 -16.132812 13.0625 -16.019531 13.0625 -15.875 L 12.6875 -15.875 C 12.738281 -15.988281 12.765625 -16.101562 12.765625 -16.21875 Z M 17.140625 -16.125 L 16.96875 -16.046875 L 16.96875 -16.125 L 17.09375 -16.171875 Z M 11.046875 -14.65625 C 10.992188 -14.601562 10.925781 -14.617188 10.84375 -14.703125 L 10.796875 -14.828125 C 10.796875 -14.941406 10.851562 -15 10.96875 -15 C 11.050781 -15 11.117188 -14.984375 11.171875 -14.953125 L 11.171875 -14.65625 Z M 13.90625 -14.359375 L 13.90625 -14.53125 C 13.925781 -14.53125 13.9375 -14.546875 13.9375 -14.578125 L 14.203125 -14.578125 L 14.109375 -14.359375 Z M 11.34375 -11.375 C 11.195312 -11.375 11.097656 -11.445312 11.046875 -11.59375 C 11.160156 -11.59375 11.242188 -11.578125 11.296875 -11.546875 C 11.328125 -11.523438 11.34375 -11.46875 11.34375 -11.375 Z M 8.90625 -11.09375 L 8.953125 -11.125 C 9.566406 -11.269531 10.082031 -11.34375 10.5 -11.34375 C 10.8125 -11.34375 11.050781 -11.300781 11.21875 -11.21875 C 11.71875 -10.90625 11.96875 -10.457031 11.96875 -9.875 C 11.96875 -9.507812 11.867188 -9.144531 11.671875 -8.78125 C 11.472656 -8.414062 11.238281 -8.117188 10.96875 -7.890625 C 10.457031 -7.503906 9.914062 -7.203125 9.34375 -6.984375 C 8.769531 -6.773438 8.035156 -6.628906 7.140625 -6.546875 L 7.3125 -10.75 Z M 13.140625 -11.34375 L 13.234375 -11.34375 L 13.234375 -11.125 L 13.140625 -11.125 Z M 3.90625 -10.671875 C 3.90625 -10.585938 3.863281 -10.515625 3.78125 -10.453125 L 3.78125 -10.84375 C 3.863281 -10.75 3.90625 -10.691406 3.90625 -10.671875 Z M 3.984375 -10.125 C 3.984375 -10.125 3.976562 -10.113281 3.96875 -10.09375 C 3.957031 -10.082031 3.953125 -10.078125 3.953125 -10.078125 C 3.804688 -9.992188 3.75 -9.894531 3.78125 -9.78125 C 3.8125 -9.757812 3.816406 -9.734375 3.796875 -9.703125 C 3.785156 -9.671875 3.78125 -9.644531 3.78125 -9.625 C 3.75 -9.644531 3.691406 -9.65625 3.609375 -9.65625 L 3.609375 -9.78125 C 3.722656 -9.863281 3.78125 -9.945312 3.78125 -10.03125 C 3.695312 -10.113281 3.738281 -10.1875 3.90625 -10.25 L 3.953125 -10.25 L 3.953125 -10.15625 C 3.972656 -10.15625 3.984375 -10.144531 3.984375 -10.125 Z M 3.90625 -9.203125 C 3.90625 -9.140625 3.882812 -9.046875 3.84375 -8.921875 C 3.800781 -8.796875 3.753906 -8.707031 3.703125 -8.65625 C 3.703125 -8.65625 3.742188 -8.613281 3.828125 -8.53125 C 3.828125 -8.53125 3.832031 -8.519531 3.84375 -8.5 C 3.851562 -8.488281 3.859375 -8.484375 3.859375 -8.484375 L 3.78125 -8.4375 C 3.75 -8.46875 3.691406 -8.484375 3.609375 -8.484375 L 3.609375 -8.984375 C 3.554688 -9.148438 3.554688 -9.304688 3.609375 -9.453125 L 3.78125 -9.453125 C 3.78125 -9.421875 3.804688 -9.378906 3.859375 -9.328125 Z M 5.5 -9.234375 C 5.53125 -9.210938 5.535156 -9.1875 5.515625 -9.15625 C 5.503906 -9.125 5.5 -9.097656 5.5 -9.078125 L 5.453125 -9.15625 C 5.453125 -9.207031 5.441406 -9.25 5.421875 -9.28125 C 5.421875 -9.332031 5.445312 -9.375 5.5 -9.40625 Z M 3.78125 -7.734375 C 3.78125 -7.753906 3.765625 -7.769531 3.734375 -7.78125 C 3.710938 -7.800781 3.703125 -7.8125 3.703125 -7.8125 C 3.671875 -7.8125 3.644531 -7.820312 3.625 -7.84375 C 3.613281 -7.875 3.609375 -7.890625 3.609375 -7.890625 L 3.78125 -7.890625 Z M 3.828125 -5.96875 C 3.796875 -5.90625 3.78125 -5.789062 3.78125 -5.625 C 3.664062 -5.625 3.59375 -5.597656 3.5625 -5.546875 C 3.625 -5.484375 3.671875 -5.453125 3.703125 -5.453125 C 3.753906 -5.453125 3.78125 -5.425781 3.78125 -5.375 C 3.75 -5.375 3.734375 -5.359375 3.734375 -5.328125 L 3.703125 -5.296875 L 3.53125 -5.453125 C 3.445312 -5.515625 3.40625 -5.5625 3.40625 -5.59375 L 3.4375 -5.75 L 3.484375 -5.875 L 3.609375 -5.875 L 3.734375 -5.921875 C 3.679688 -5.972656 3.613281 -6 3.53125 -6 C 3.46875 -6.28125 3.4375 -6.578125 3.4375 -6.890625 C 3.4375 -6.941406 3.492188 -6.96875 3.609375 -6.96875 C 3.691406 -7.03125 3.734375 -7.085938 3.734375 -7.140625 L 3.734375 -7.265625 C 3.734375 -7.347656 3.75 -7.40625 3.78125 -7.4375 L 3.828125 -6.71875 C 3.742188 -6.71875 3.671875 -6.675781 3.609375 -6.59375 C 3.640625 -6.5625 3.679688 -6.523438 3.734375 -6.484375 C 3.796875 -6.441406 3.832031 -6.398438 3.84375 -6.359375 C 3.851562 -6.316406 3.859375 -6.269531 3.859375 -6.21875 Z M 10.96875 -6.21875 C 10.90625 -6.15625 10.816406 -6.125 10.703125 -6.125 L 10.578125 -6.265625 L 10.921875 -6.421875 Z M 3.4375 -5.078125 L 3.4375 -5.203125 L 3.484375 -5.25 L 3.609375 -5.25 L 3.78125 -5.203125 L 3.78125 -4.953125 L 3.65625 -4.953125 Z M 5.328125 -2.3125 C 5.328125 -2.3125 5.320312 -2.316406 5.3125 -2.328125 C 5.300781 -2.347656 5.296875 -2.359375 5.296875 -2.359375 L 5.296875 -2.4375 C 5.296875 -2.519531 5.320312 -2.609375 5.375 -2.703125 C 5.425781 -2.804688 5.484375 -2.882812 5.546875 -2.9375 L 5.546875 -3.109375 L 5.5 -3.28125 L 5.546875 -3.3125 C 5.546875 -3.34375 5.5625 -3.359375 5.59375 -3.359375 C 5.5 -3.585938 5.507812 -3.785156 5.625 -3.953125 C 5.738281 -4.171875 5.796875 -4.4375 5.796875 -4.75 L 5.875 -5 C 5.9375 -5.113281 5.992188 -5.195312 6.046875 -5.25 L 6.046875 -2.3125 Z M 3.5625 -4.28125 L 3.484375 -4.28125 L 3.484375 -4.453125 L 3.5625 -4.453125 Z M 3.5625 -3.90625 L 3.484375 -3.90625 L 3.484375 -4.03125 L 3.5625 -4.03125 Z M 3.53125 -3.15625 C 3.414062 -3.125 3.316406 -3.125 3.234375 -3.15625 L 3.234375 -3.3125 L 3.53125 -3.3125 Z M 5.125 -2.609375 C 5.125 -2.546875 5.09375 -2.488281 5.03125 -2.4375 C 4.976562 -2.382812 4.953125 -2.328125 4.953125 -2.265625 C 4.984375 -2.234375 5 -2.175781 5 -2.09375 C 5 -1.988281 4.941406 -1.878906 4.828125 -1.765625 L 4.75 -1.71875 L 4.703125 -1.71875 C 4.671875 -1.75 4.65625 -1.832031 4.65625 -1.96875 C 4.65625 -2.132812 4.6875 -2.21875 4.75 -2.21875 C 4.800781 -2.21875 4.882812 -2.359375 5 -2.640625 C 5.03125 -2.640625 5.046875 -2.628906 5.046875 -2.609375 Z M 5.125 -2.609375 "/></g></g></g><g clip-path="url(#5db80c18fd)"><g clip-path="url(#eb3d077b90)"><path fill="#004e64" d="M 147.277344 302.210938 L 234.792969 302.210938 L 234.792969 369.292969 L 147.277344 369.292969 Z M 147.277344 302.210938 " fill-opacity="1" fill-rule="nonzero"/></g></g><g clip-path="url(#0df4bf1a76)"><g clip-path="url(#f1b5ec9fdc)"><path stroke-linecap="butt" transform="matrix(0.75, 0, 0, 0.75, 147.275928, 302.215907)" fill="none" stroke-linejoin="miter" d="M 65.923767 77.701712 L 108.918562 11.727749 C 110.439395 9.394416 110.559187 6.420457 109.231062 3.97254 C 107.908145 1.524624 105.345645 -0.00141814 102.564395 -0.00141814 L 13.996681 -0.00141814 C 11.215431 -0.00141814 8.65293 1.524624 7.330014 3.97254 C 6.001889 6.420457 6.12168 9.394416 7.642514 11.727749 L 50.637308 77.701712 C 52.3196 80.285045 55.199808 81.842337 58.283142 81.842337 C 61.366476 81.842337 64.241476 80.285045 65.923767 77.701712 Z M 65.923767 77.701712 " stroke="#ff672a" stroke-width="26" stroke-opacity="1" stroke-miterlimit="4"/></g></g><g clip-path="url(#e4fb8d9710)"><g clip-path="url(#4de190eda8)"><path stroke-linecap="butt" transform="matrix(0.75, 0, 0, 0.75, 53.671818, 74.364919)" fill="none" stroke-linejoin="miter" d="M 68.994872 -0.00218382 L 297.177179 -0.00218382 C 335.281348 -0.00218382 366.171975 30.893652 366.171975 68.997821 L 366.171975 256.003041 C 366.171975 294.10721 335.281348 324.997838 297.177179 324.997838 L 68.994872 324.997838 C 30.890703 324.997838 0.0000762993 294.10721 0.0000762993 256.003041 L 0.0000762993 68.997821 C 0.0000762993 30.893652 30.890703 -0.00218382 68.994872 -0.00218382 Z M 68.994872 -0.00218382 " stroke="#ff672a" stroke-width="28" stroke-opacity="1" stroke-miterlimit="4"/></g></g><g clip-path="url(#f12f0c4bb7)"><g clip-path="url(#8713876496)"><path fill="#004e64" d="M 129.050781 265.886719 L 254.199219 265.886719 L 254.199219 357.421875 L 129.050781 357.421875 Z M 129.050781 265.886719 " fill-opacity="1" fill-rule="nonzero"/></g></g><g clip-path="url(#7649ec88c6)"><g clip-path="url(#0e29b6b8f1)"><path stroke-linecap="butt" transform="matrix(0.75, 0, 0, 0.75, 129.052232, 265.885295)" fill="none" stroke-linejoin="miter" d="M 85.800155 118.746697 L 164.820993 3.298773 C 165.258493 2.65294 165.310576 1.819606 164.945993 1.126898 C 164.58141 0.43419 163.86266 0.00189788 163.076201 0.00189788 L 3.998066 0.00189788 C 3.216816 0.00189788 2.498066 0.43419 2.133482 1.126898 C 1.768899 1.819606 1.815774 2.65294 2.258482 3.298773 L 81.279321 118.746697 C 81.789738 119.491489 82.633488 119.934197 83.539738 119.934197 C 84.44078 119.934197 85.289738 119.491489 85.800155 118.746697 Z M 85.800155 118.746697 " stroke="#fff7d9" stroke-width="30" stroke-opacity="1" stroke-miterlimit="4"/></g></g><g clip-path="url(#73bb80eba0)"><g clip-path="url(#19d7e35c51)"><path fill="#004e64" d="M 59.617188 163.972656 L 318.9375 163.972656 L 318.9375 311.167969 L 59.617188 311.167969 Z M 59.617188 163.972656 " fill-opacity="1" fill-rule="nonzero"/></g></g><g clip-path="url(#a1e62dac56)"><g clip-path="url(#ef3bf31956)"><path fill="#ff5326" d="M 59.617188 82.976562 L 319.234375 82.976562 L 319.234375 193.191406 L 59.617188 193.191406 Z M 59.617188 82.976562 " fill-opacity="1" fill-rule="nonzero"/></g></g><g clip-path="url(#6527d88dfd)"><path fill="#ffb85a" d="M 62.910156 142.628906 L 319.132812 142.628906 L 319.132812 195.867188 L 62.910156 195.867188 Z M 62.910156 142.628906 " fill-opacity="1" fill-rule="nonzero"/></g><g clip-path="url(#0d96a386af)"><g clip-path="url(#82da0a3f17)"><path stroke-linecap="butt" transform="matrix(0.75, 0, 0, 0.75, 53.812729, 74.364283)" fill="none" stroke-linejoin="miter" d="M 64.999695 -0.00133582 L 296.416362 -0.00133582 C 313.655945 -0.00133582 330.187195 6.847623 342.379904 19.035123 C 354.567404 31.227831 361.416362 47.759081 361.416362 64.998664 L 361.416362 255.425748 C 361.416362 272.660123 354.567404 289.196581 342.379904 301.384081 C 330.187195 313.571581 313.655945 320.42054 296.416362 320.42054 L 64.999695 320.42054 C 47.760111 320.42054 31.228861 313.571581 19.036153 301.384081 C 6.848653 289.196581 -0.000305288 272.660123 -0.000305288 255.425748 L -0.000305288 64.998664 C -0.000305288 47.759081 6.848653 31.227831 19.036153 19.035123 C 31.228861 6.847623 47.760111 -0.00133582 64.999695 -0.00133582 Z M 64.999695 -0.00133582 " stroke="#fff7d9" stroke-width="30" stroke-opacity="1" stroke-miterlimit="4"/></g></g><g clip-path="url(#2a162c8ce3)"><g clip-path="url(#9f67dbc8b7)"><path fill="#004e64" d="M 152.40625 280.847656 L 231.058594 280.847656 L 231.058594 341.492188 L 152.40625 341.492188 Z M 152.40625 280.847656 " fill-opacity="1" fill-rule="nonzero"/></g></g><g clip-path="url(#cb56d5f71c)"><g clip-path="url(#b09b756121)"><path fill="#004e64" d="M 270.078125 111.945312 L 270.078125 274.441406 L 107.582031 274.441406 L 107.582031 111.945312 Z M 270.078125 111.945312 " fill-opacity="1" fill-rule="nonzero"/></g></g><g clip-path="url(#c189f3f833)"><g clip-path="url(#33847b3a66)"><path stroke-linecap="butt" transform="matrix(0, 0.75, -0.75, 0, 270.076657, 111.945043)" fill="none" stroke-linejoin="miter" d="M 108.328484 -0.00195711 C 48.500359 -0.00195711 0.000359268 48.498043 0.000359268 108.326168 C 0.000359268 168.154293 48.500359 216.654293 108.328484 216.654293 C 168.15661 216.654293 216.65661 168.154293 216.65661 108.326168 C 216.65661 48.498043 168.15661 -0.00195711 108.328484 -0.00195711 Z M 108.328484 -0.00195711 " stroke="#fff7d9" stroke-width="32" stroke-opacity="1" stroke-miterlimit="4"/></g></g><g clip-path="url(#60039b074f)"><g clip-path="url(#f157dbf486)"><path fill="#004e64" d="M 160.390625 241.191406 L 160.390625 145.042969 L 244.398438 145.042969 L 244.398438 241.191406 Z M 160.390625 241.191406 " fill-opacity="1" fill-rule="nonzero"/></g></g><g clip-path="url(#8f5906b82c)"><g clip-path="url(#603b3dded9)"><path stroke-linecap="butt" transform="matrix(0, -0.75, 0.75, 0, 160.391478, 241.189715)" fill="none" stroke-linejoin="miter" d="M 77.393583 88.561369 L 114.607127 23.441573 C 117.37796 18.592614 117.357127 12.63428 114.555044 7.800947 C 111.747752 2.972821 106.586293 -0.00113729 101.002959 -0.00113729 L 26.997746 -0.00113729 C 21.414412 -0.00113729 16.247745 2.972821 13.445662 7.800947 C 10.643578 12.63428 10.622745 18.592614 13.393579 23.441573 L 50.607123 88.561369 C 53.351915 93.368661 58.46129 96.332202 63.997749 96.332202 C 69.534207 96.332202 74.648791 93.368661 77.393583 88.561369 Z M 77.393583 88.561369 " stroke="#fff7d9" stroke-width="32" stroke-opacity="1" stroke-miterlimit="4"/></g></g></svg>